<svg id="visual" viewBox="0 0 960 540" width="960" height="540" xmlns="http://www.w3.org/2000/svg" xmlns:xlink="http://www.w3.org/1999/xlink" version="1.1"><path d="M0 362L22.8 354C45.7 346 91.3 330 137 329.8C182.7 329.7 228.3 345.3 274 339C319.7 332.7 365.3 304.3 411.2 301C457 297.7 503 319.3 548.8 339.2C594.7 359 640.3 377 686 366.5C731.7 356 777.3 317 823 309.3C868.7 301.7 914.3 325.3 937.2 337.2L960 349L960 541L937.2 541C914.3 541 868.7 541 823 541C777.3 541 731.7 541 686 541C640.3 541 594.7 541 548.8 541C503 541 457 541 411.2 541C365.3 541 319.7 541 274 541C228.3 541 182.7 541 137 541C91.3 541 45.7 541 22.8 541L0 541Z" fill="#fa7268"></path><path d="M0 372L22.8 373.3C45.7 374.7 91.3 377.3 137 385.7C182.7 394 228.3 408 274 414.8C319.7 421.7 365.3 421.3 411.2 413.7C457 406 503 391 548.8 391.7C594.7 392.3 640.3 408.7 686 411.5C731.7 414.3 777.3 403.7 823 392.8C868.7 382 914.3 371 937.2 365.5L960 360L960 541L937.2 541C914.3 541 868.7 541 823 541C777.3 541 731.7 541 686 541C640.3 541 594.7 541 548.8 541C503 541 457 541 411.2 541C365.3 541 319.7 541 274 541C228.3 541 182.7 541 137 541C91.3 541 45.7 541 22.8 541L0 541Z" fill="#e34c67"></path><path d="M0 446L22.8 442.5C45.7 439 91.3 432 137 432.7C182.7 433.3 228.3 441.7 274 450.5C319.7 459.3 365.3 468.7 411.2 472.8C457 477 503 476 548.8 467.3C594.7 458.7 640.3 442.3 686 444.3C731.7 446.3 777.3 466.7 823 469C868.7 471.3 914.3 455.7 937.2 447.8L960 440L960 541L937.2 541C914.3 541 868.7 541 823 541C777.3 541 731.7 541 686 541C640.3 541 594.7 541 548.8 541C503 541 457 541 411.2 541C365.3 541 319.7 541 274 541C228.3 541 182.7 541 137 541C91.3 541 45.7 541 22.8 541L0 541Z" fill="#c62368"></path></svg>
